<svg xmlns="http://www.w3.org/2000/svg" xmlns:xlink="http://www.w3.org/1999/xlink" width="500" zoomAndPan="magnify" viewBox="0 0 375 374.999991" height="500" preserveAspectRatio="xMidYMid meet" version="1.0"><defs><g/><clipPath id="f6b56c1452"><path d="M 138.859375 175 L 154 175 L 154 194 L 138.859375 194 Z M 138.859375 175 " clip-rule="nonzero"/></clipPath><clipPath id="381c592201"><path d="M 144 165.609375 L 163 165.609375 L 163 185 L 144 185 Z M 144 165.609375 " clip-rule="nonzero"/></clipPath><clipPath id="37ff5b6952"><path d="M 167 180 L 182.359375 180 L 182.359375 200 L 167 200 Z M 167 180 " clip-rule="nonzero"/></clipPath><clipPath id="a8598be753"><path d="M 158 189 L 177 189 L 177 209.109375 L 158 209.109375 Z M 158 189 " clip-rule="nonzero"/></clipPath></defs><g fill="#000000" fill-opacity="1"><g transform="translate(46.476787, 209.003407)"><g><path d="M 4.21875 -42.140625 L 16.140625 -42.140625 L 16.140625 0 L 4.21875 0 Z M 4.21875 -42.140625 "/></g></g></g><g fill="#000000" fill-opacity="1"><g transform="translate(60.74649, 209.003407)"><g><path d="M 44.3125 -42.140625 L 44.3125 0 L 34.5 0 L 15.890625 -22.453125 L 15.890625 0 L 4.21875 0 L 4.21875 -42.140625 L 14.03125 -42.140625 L 32.625 -19.6875 L 32.625 -42.140625 Z M 44.3125 -42.140625 "/></g></g></g><g fill="#000000" fill-opacity="1"><g transform="translate(103.13411, 209.003407)"><g><path d="M 16.140625 -32.9375 L 16.140625 -23.65625 L 34.734375 -23.65625 L 34.734375 -14.453125 L 16.140625 -14.453125 L 16.140625 0 L 4.21875 0 L 4.21875 -42.140625 L 37.265625 -42.140625 L 37.265625 -32.9375 Z M 16.140625 -32.9375 "/></g></g></g><g fill="#000000" fill-opacity="1"><g transform="translate(135.648797, 209.003407)"><g/></g></g><g fill="#000000" fill-opacity="1"><g transform="translate(147.028431, 209.003407)"><g/></g></g><g fill="#000000" fill-opacity="1"><g transform="translate(158.408065, 209.003407)"><g/></g></g><g fill="#000000" fill-opacity="1"><g transform="translate(169.787699, 209.003407)"><g/></g></g><g fill="#000000" fill-opacity="1"><g transform="translate(181.186776, 209.003407)"><g><path d="M 25.21875 0.84375 C 20.8125 0.84375 16.847656 -0.0859375 13.328125 -1.953125 C 9.816406 -3.816406 7.054688 -6.414062 5.046875 -9.75 C 3.046875 -13.082031 2.046875 -16.859375 2.046875 -21.078125 C 2.046875 -25.285156 3.046875 -29.054688 5.046875 -32.390625 C 7.054688 -35.722656 9.816406 -38.320312 13.328125 -40.1875 C 16.847656 -42.050781 20.8125 -42.984375 25.21875 -42.984375 C 29.070312 -42.984375 32.546875 -42.300781 35.640625 -40.9375 C 38.734375 -39.570312 41.300781 -37.601562 43.34375 -35.03125 L 35.765625 -28.171875 C 33.035156 -31.460938 29.722656 -33.109375 25.828125 -33.109375 C 23.535156 -33.109375 21.492188 -32.601562 19.703125 -31.59375 C 17.921875 -30.59375 16.539062 -29.179688 15.5625 -27.359375 C 14.582031 -25.535156 14.09375 -23.441406 14.09375 -21.078125 C 14.09375 -18.703125 14.582031 -16.601562 15.5625 -14.78125 C 16.539062 -12.957031 17.921875 -11.539062 19.703125 -10.53125 C 21.492188 -9.53125 23.535156 -9.03125 25.828125 -9.03125 C 29.722656 -9.03125 33.035156 -10.675781 35.765625 -13.96875 L 43.34375 -7.109375 C 41.300781 -4.535156 38.734375 -2.566406 35.640625 -1.203125 C 32.546875 0.160156 29.070312 0.84375 25.21875 0.84375 Z M 25.21875 0.84375 "/></g></g></g><g fill="#000000" fill-opacity="1"><g transform="translate(219.480142, 209.003407)"><g><path d="M 23.65625 0.84375 C 17.394531 0.84375 12.53125 -0.859375 9.0625 -4.265625 C 5.59375 -7.679688 3.859375 -12.519531 3.859375 -18.78125 L 3.859375 -42.140625 L 15.765625 -42.140625 L 15.765625 -19.140625 C 15.765625 -12.398438 18.4375 -9.03125 23.78125 -9.03125 C 29.082031 -9.03125 31.734375 -12.398438 31.734375 -19.140625 L 31.734375 -42.140625 L 43.46875 -42.140625 L 43.46875 -18.78125 C 43.46875 -12.519531 41.726562 -7.679688 38.25 -4.265625 C 34.78125 -0.859375 29.914062 0.84375 23.65625 0.84375 Z M 23.65625 0.84375 "/></g></g></g><g fill="#000000" fill-opacity="1"><g transform="translate(260.663554, 209.003407)"><g><path d="M 19.03125 0.84375 C 15.613281 0.84375 12.300781 0.421875 9.09375 -0.421875 C 5.882812 -1.265625 3.273438 -2.390625 1.265625 -3.796875 L 5.171875 -12.578125 C 7.054688 -11.335938 9.242188 -10.332031 11.734375 -9.5625 C 14.222656 -8.800781 16.671875 -8.421875 19.078125 -8.421875 C 23.660156 -8.421875 25.953125 -9.566406 25.953125 -11.859375 C 25.953125 -13.066406 25.296875 -13.957031 23.984375 -14.53125 C 22.679688 -15.113281 20.585938 -15.726562 17.703125 -16.375 C 14.523438 -17.0625 11.875 -17.796875 9.75 -18.578125 C 7.625 -19.359375 5.796875 -20.609375 4.265625 -22.328125 C 2.742188 -24.054688 1.984375 -26.382812 1.984375 -29.3125 C 1.984375 -31.882812 2.6875 -34.203125 4.09375 -36.265625 C 5.5 -38.335938 7.59375 -39.972656 10.375 -41.171875 C 13.164062 -42.378906 16.59375 -42.984375 20.65625 -42.984375 C 23.414062 -42.984375 26.140625 -42.671875 28.828125 -42.046875 C 31.523438 -41.429688 33.894531 -40.519531 35.9375 -39.3125 L 32.265625 -30.46875 C 28.253906 -32.632812 24.363281 -33.71875 20.59375 -33.71875 C 18.21875 -33.71875 16.488281 -33.363281 15.40625 -32.65625 C 14.320312 -31.957031 13.78125 -31.046875 13.78125 -29.921875 C 13.78125 -28.796875 14.421875 -27.953125 15.703125 -27.390625 C 16.992188 -26.828125 19.0625 -26.242188 21.90625 -25.640625 C 25.125 -24.960938 27.785156 -24.234375 29.890625 -23.453125 C 31.992188 -22.671875 33.816406 -21.425781 35.359375 -19.71875 C 36.910156 -18.007812 37.6875 -15.691406 37.6875 -12.765625 C 37.6875 -10.234375 36.984375 -7.941406 35.578125 -5.890625 C 34.171875 -3.847656 32.0625 -2.210938 29.25 -0.984375 C 26.445312 0.234375 23.039062 0.84375 19.03125 0.84375 Z M 19.03125 0.84375 "/></g></g></g><g clip-path="url(#f6b56c1452)"><path fill="#000000" d="M 153.738281 193.734375 L 142.554688 175.171875 C 140.207031 178.640625 138.835938 182.820312 138.835938 187.316406 C 138.835938 189.550781 139.175781 191.707031 139.804688 193.734375 Z M 153.738281 193.734375 " fill-opacity="1" fill-rule="nonzero"/></g><path fill="#000000" d="M 158.4375 178.101562 L 180.238281 178.101562 C 177.4375 172.148438 172.015625 167.664062 165.460938 166.152344 Z M 158.4375 178.101562 " fill-opacity="1" fill-rule="nonzero"/><g clip-path="url(#381c592201)"><path fill="#000000" d="M 151.4375 184.832031 L 162.6875 165.691406 C 161.988281 165.625 161.28125 165.585938 160.566406 165.585938 C 154.085938 165.585938 148.265625 168.441406 144.28125 172.953125 Z M 151.4375 184.832031 " fill-opacity="1" fill-rule="nonzero"/></g><path fill="#000000" d="M 155.96875 208.363281 L 162.851562 196.359375 L 140.816406 196.359375 C 143.707031 202.644531 149.507812 207.324219 156.484375 208.65625 Z M 155.96875 208.363281 " fill-opacity="1" fill-rule="nonzero"/><g clip-path="url(#37ff5b6952)"><path fill="#000000" d="M 167.359375 180.730469 L 178.34375 199.789062 C 180.828125 196.253906 182.296875 191.953125 182.296875 187.316406 C 182.296875 185.019531 181.933594 182.808594 181.273438 180.730469 Z M 167.359375 180.730469 " fill-opacity="1" fill-rule="nonzero"/></g><g clip-path="url(#a8598be753)"><path fill="#000000" d="M 169.597656 189.875 L 158.65625 208.957031 C 159.285156 209.011719 159.921875 209.046875 160.566406 209.046875 C 166.898438 209.046875 172.601562 206.320312 176.578125 201.988281 Z M 169.597656 189.875 " fill-opacity="1" fill-rule="nonzero"/></g></svg>